# xmcd
#
# Track frame offsets: 
#        150
#        13362
#        23872
#        35230
#        43592
#        53907
#        67515
#        84687
#        95267
#        106562
#        121967
#        137945
#        152705
#        161802
#        174775
#        190887
#        200900
#        215322
#        228987
#
# Disc length: 3228 seconds
#
# Revision: 2
# Processed by: cddbd v1.5PL3 Copyright (c) Steve Scherf et al.
# Submitted via: ExactAudioCopy v0.90b4
#
DISCID=000c9a13
DTITLE=Various Artist - By Request (Country's All-Time Best-Loved Son
DTITLE=gs and Stars - Disc 2
DYEAR=2002
DGENRE=Country
TTITLE0=Hey, Good Lookin' - Hank Williams and His Drifting Cowboys
TTITLE1=Primrose Lane - Jerry Wallace
TTITLE2=The Happiest Girl In The Whole U.S.A. - Donna Fargo
TTITLE3=Dang Me - Roger Miller
TTITLE4=Honeycomb - Jimmie Rodgers
TTITLE5=Wrong - Waylon Jennings
TTITLE6=A Boy Named Sue - Johnny Cash
TTITLE7=Her Name Is ...- George Jones
TTITLE8=I Saw The Light - Mickey Gilley
TTITLE9=Achy Breaky Heart - Billy Ray Cyrus
TTITLE10=The Gambler - Kenny Rogers
TTITLE11=Yesterday's Wine - Merle Haggard and George Jones
TTITLE12=Honky Tonk Blues - Charley Pride With The Jordanaires
TTITLE13=Honky Tonk Moon - Randy Travis
TTITLE14=Whiskey River - Willie Nelson
TTITLE15=Honky Tonk Man - Johnny Horton
TTITLE16=If Drinkin' Don't Kill Me (Her Memory Will) - George Jones
TTITLE17=City Lights - Ray Price
TTITLE18=(They Call Me The) Moonlight Gambler - Frankie Lane
EXTD=A461355\nA61357\nSSFLM03600-2
EXTT0=
EXTT1=
EXTT2=
EXTT3=
EXTT4=
EXTT5=
EXTT6=
EXTT7=
EXTT8=
EXTT9=
EXTT10=
EXTT11=
EXTT12=
EXTT13=
EXTT14=
EXTT15=
EXTT16=
EXTT17=
EXTT18=
PLAYORDER=
